<svg width="233" height="266" viewBox="0 0 233 266" fill="none" xmlns="http://www.w3.org/2000/svg">
<g opacity="0.5">
<mask id="mask0_231_12329" style="mask-type:alpha" maskUnits="userSpaceOnUse" x="0" y="-32" width="298" height="298">
<path fill-rule="evenodd" clip-rule="evenodd" d="M287 117C287 193.215 225.215 255 149 255C72.7847 255 11 193.215 11 117C11 40.7847 72.7847 -21 149 -21C225.215 -21 287 40.7847 287 117ZM298 117C298 199.29 231.29 266 149 266C66.7096 266 0 199.29 0 117C0 34.7096 66.7096 -32 149 -32C231.29 -32 298 34.7096 298 117ZM59.6 113.906L99.1413 78.6857H117.291V85.8161L81.7474 117.471V119.091L117.291 151.502V158.092H99.3573L59.6 122.873V113.906ZM180.709 85.8161V78.6857H198.751L238.4 113.906V122.873L198.643 158.092H180.709V151.502L216.145 119.091V117.471L180.709 85.8161ZM155.211 78.6857L124.637 158.092H143.327L173.469 78.6857H155.211Z" fill="#00FF8B"/>
</mask>
<g mask="url(#mask0_231_12329)">
<rect width="570.947" height="1" fill="#212121"/>
<rect y="4" width="570.947" height="1" fill="#212121"/>
<rect y="8" width="570.947" height="1" fill="#212121"/>
<rect y="12" width="570.947" height="1" fill="#212121"/>
<rect y="16" width="570.947" height="1" fill="#212121"/>
<rect y="20" width="570.947" height="1" fill="#212121"/>
<rect y="24" width="570.947" height="1" fill="#212121"/>
<rect y="28" width="570.947" height="1" fill="#212121"/>
<rect y="32" width="570.947" height="1" fill="#212121"/>
<rect y="36" width="570.947" height="1" fill="#212121"/>
<rect y="40" width="570.947" height="1" fill="#212121"/>
<rect y="44" width="570.947" height="1" fill="#212121"/>
<rect y="48" width="570.947" height="1" fill="#212121"/>
<rect y="52" width="570.947" height="1" fill="#212121"/>
<rect y="56" width="570.947" height="1" fill="#212121"/>
<rect y="60" width="570.947" height="1" fill="#212121"/>
<rect y="64" width="570.947" height="1" fill="#212121"/>
<rect y="68" width="570.947" height="1" fill="#212121"/>
<rect y="72" width="570.947" height="1" fill="#212121"/>
<rect y="76" width="570.947" height="1" fill="#212121"/>
<rect y="80" width="570.947" height="1" fill="#212121"/>
<rect y="84" width="570.947" height="1" fill="#212121"/>
<rect y="88" width="570.947" height="1" fill="#212121"/>
<rect y="92" width="570.947" height="1" fill="#212121"/>
<rect y="96" width="570.947" height="1" fill="#212121"/>
<rect y="100" width="570.947" height="1" fill="#212121"/>
<rect y="104" width="570.947" height="1" fill="#212121"/>
<rect y="108" width="570.947" height="1" fill="#212121"/>
<rect y="112" width="570.947" height="1" fill="#212121"/>
<rect y="116" width="570.947" height="1" fill="#212121"/>
<rect y="120" width="570.947" height="1" fill="#212121"/>
<rect y="124" width="570.947" height="1" fill="#212121"/>
<rect y="128" width="570.947" height="1" fill="#212121"/>
<rect y="132" width="570.947" height="1" fill="#212121"/>
<rect y="136" width="570.947" height="1" fill="#212121"/>
<rect y="140" width="570.947" height="1" fill="#212121"/>
<rect y="144" width="570.947" height="1" fill="#212121"/>
<rect y="148" width="570.947" height="1" fill="#212121"/>
<rect y="152" width="570.947" height="1" fill="#212121"/>
<rect y="156" width="570.947" height="1" fill="#212121"/>
<rect y="160" width="570.947" height="1" fill="#212121"/>
<rect y="164" width="570.947" height="1" fill="#212121"/>
<rect y="168" width="570.947" height="1" fill="#212121"/>
<rect y="172" width="570.947" height="1" fill="#212121"/>
<rect y="176" width="570.947" height="1" fill="#212121"/>
<rect y="180" width="570.947" height="1" fill="#212121"/>
<rect y="184" width="570.947" height="1" fill="#212121"/>
<rect y="188" width="570.947" height="1" fill="#212121"/>
<rect y="192" width="570.947" height="1" fill="#212121"/>
<rect y="196" width="570.947" height="1" fill="#212121"/>
<rect y="200" width="570.947" height="1" fill="#212121"/>
<rect y="204" width="570.947" height="1" fill="#212121"/>
<rect y="208" width="570.947" height="1" fill="#212121"/>
<rect y="212" width="570.947" height="1" fill="#212121"/>
<rect y="216" width="570.947" height="1" fill="#212121"/>
<rect y="220" width="570.947" height="1" fill="#212121"/>
<rect y="224" width="570.947" height="1" fill="#212121"/>
<rect y="228" width="570.947" height="1" fill="#212121"/>
<rect y="232" width="570.947" height="1" fill="#212121"/>
<rect y="236" width="570.947" height="1" fill="#212121"/>
<rect y="240" width="570.947" height="1" fill="#212121"/>
<rect y="244" width="570.947" height="1" fill="#212121"/>
<rect y="248" width="570.947" height="1" fill="#212121"/>
<rect y="252" width="570.947" height="1" fill="#212121"/>
<rect y="256" width="570.947" height="1" fill="#212121"/>
<rect y="260" width="570.947" height="1" fill="#212121"/>
<rect y="264" width="570.947" height="1" fill="#212121"/>
</g>
</g>
</svg>
