<svg width="433" height="293" viewBox="0 0 433 293" fill="none" xmlns="http://www.w3.org/2000/svg">
<g opacity="0.2">
<mask id="mask0_163_12907" style="mask-type:alpha" maskUnits="userSpaceOnUse" x="0" y="0" width="433" height="293">
<path d="M127.581 77.581L56.8978 140.6V156.543L127.957 219.562H159.915V207.761L96.5007 149.889V147.002L159.915 90.3856V77.581H127.581ZM273.085 77.581V90.3856L336.499 147.002V149.889L273.085 207.761V219.562H305.043L376.102 156.543V140.6L305.419 77.581H273.085ZM227.591 77.581L172.949 219.562H206.411L260.176 77.581H227.591ZM30.8301 259.859V33.7691L33.7126 30.8817H398.159L402.045 33.7691V258.854L398.535 262.118H33.7126L30.8301 259.859ZM13.9111 0L0 15.0643V278.563L14.2871 293H417.961L433 278.563V15.4409L417.585 0H13.9111Z" fill="#00FF8B"/>
</mask>
<g mask="url(#mask0_163_12907)">
<rect width="433" height="1" fill="#00FF8B"/>
<rect y="4" width="433" height="1" fill="#00FF8B"/>
<rect y="8" width="433" height="1" fill="#00FF8B"/>
<rect y="12" width="433" height="1" fill="#00FF8B"/>
<rect y="16" width="433" height="1" fill="#00FF8B"/>
<rect y="20" width="433" height="1" fill="#00FF8B"/>
<rect y="24" width="433" height="1" fill="#00FF8B"/>
<rect y="28" width="433" height="1" fill="#00FF8B"/>
<rect y="32" width="433" height="1" fill="#00FF8B"/>
<rect y="36" width="433" height="1" fill="#00FF8B"/>
<rect y="40" width="433" height="1" fill="#00FF8B"/>
<rect y="44" width="433" height="1" fill="#00FF8B"/>
<rect y="48" width="433" height="1" fill="#00FF8B"/>
<rect y="52" width="433" height="1" fill="#00FF8B"/>
<rect y="56" width="433" height="1" fill="#00FF8B"/>
<rect y="60" width="433" height="1" fill="#00FF8B"/>
<rect y="64" width="433" height="1" fill="#00FF8B"/>
<rect y="68" width="433" height="1" fill="#00FF8B"/>
<rect y="72" width="433" height="1" fill="#00FF8B"/>
<rect y="76" width="433" height="1" fill="#00FF8B"/>
<rect y="80" width="433" height="1" fill="#00FF8B"/>
<rect y="84" width="433" height="1" fill="#00FF8B"/>
<rect y="88" width="433" height="1" fill="#00FF8B"/>
<rect y="92" width="433" height="1" fill="#00FF8B"/>
<rect y="96" width="433" height="1" fill="#00FF8B"/>
<rect y="100" width="433" height="1" fill="#00FF8B"/>
<rect y="104" width="433" height="1" fill="#00FF8B"/>
<rect y="108" width="433" height="1" fill="#00FF8B"/>
<rect y="112" width="433" height="1" fill="#00FF8B"/>
<rect y="116" width="433" height="1" fill="#00FF8B"/>
<rect y="120" width="433" height="1" fill="#00FF8B"/>
<rect y="124" width="433" height="1" fill="#00FF8B"/>
<rect y="128" width="433" height="1" fill="#00FF8B"/>
<rect y="132" width="433" height="1" fill="#00FF8B"/>
<rect y="136" width="433" height="1" fill="#00FF8B"/>
<rect y="140" width="433" height="1" fill="#00FF8B"/>
<rect y="144" width="433" height="1" fill="#00FF8B"/>
<rect y="148" width="433" height="1" fill="#00FF8B"/>
<rect y="152" width="433" height="1" fill="#00FF8B"/>
<rect y="156" width="433" height="1" fill="#00FF8B"/>
<rect y="160" width="433" height="1" fill="#00FF8B"/>
<rect y="164" width="433" height="1" fill="#00FF8B"/>
<rect y="168" width="433" height="1" fill="#00FF8B"/>
<rect y="172" width="433" height="1" fill="#00FF8B"/>
<rect y="176" width="433" height="1" fill="#00FF8B"/>
<rect y="180" width="433" height="1" fill="#00FF8B"/>
<rect y="184" width="433" height="1" fill="#00FF8B"/>
<rect y="188" width="433" height="1" fill="#00FF8B"/>
<rect y="192" width="433" height="1" fill="#00FF8B"/>
<rect y="196" width="433" height="1" fill="#00FF8B"/>
<rect y="200" width="433" height="1" fill="#00FF8B"/>
<rect y="204" width="433" height="1" fill="#00FF8B"/>
<rect y="208" width="433" height="1" fill="#00FF8B"/>
<rect y="212" width="433" height="1" fill="#00FF8B"/>
<rect y="216" width="433" height="1" fill="#00FF8B"/>
<rect y="220" width="433" height="1" fill="#00FF8B"/>
<rect y="224" width="433" height="1" fill="#00FF8B"/>
<rect y="228" width="433" height="1" fill="#00FF8B"/>
<rect y="232" width="433" height="1" fill="#00FF8B"/>
<rect y="236" width="433" height="1" fill="#00FF8B"/>
<rect y="240" width="433" height="1" fill="#00FF8B"/>
<rect y="244" width="433" height="1" fill="#00FF8B"/>
<rect y="248" width="433" height="1" fill="#00FF8B"/>
<rect y="252" width="433" height="1" fill="#00FF8B"/>
<rect y="256" width="433" height="1" fill="#00FF8B"/>
<rect y="260" width="433" height="1" fill="#00FF8B"/>
<rect y="264" width="433" height="1" fill="#00FF8B"/>
<rect y="268" width="433" height="1" fill="#00FF8B"/>
<rect y="272" width="433" height="1" fill="#00FF8B"/>
<rect y="276" width="433" height="1" fill="#00FF8B"/>
<rect y="280" width="433" height="1" fill="#00FF8B"/>
<rect y="284" width="433" height="1" fill="#00FF8B"/>
<rect y="288" width="433" height="1" fill="#00FF8B"/>
<rect y="292" width="433" height="1" fill="#00FF8B"/>
</g>
</g>
</svg>
