<svg width="40" height="40" viewBox="0 0 40 40" fill="none" xmlns="http://www.w3.org/2000/svg">
<path d="M39.9957 20.1075C39.7707 8.67419 30.4798 -0.384424 19.304 0.012567C8.39548 0.395122 -0.234277 9.77133 0.00485196 20.9737C0.180682 29.2528 5.10393 36.2759 12.0528 39.3724C13.0374 38.0876 13.8603 35.7778 14.2682 34.4858C14.6761 33.432 15.1122 32.407 15.5623 31.4109C17.5949 32.14 20.3168 31.447 21.8078 29.7869L21.8641 29.7219H21.8571C20.0495 28.9135 17.5598 29.3322 15.921 30.6386C16.4837 29.4476 17.0745 28.3 17.6934 27.1956C19.6908 28.0185 22.4408 27.4555 24.0022 25.8675L24.0655 25.8025H24.0585C22.3142 24.9219 19.8596 25.1962 18.1646 26.3728C18.7835 25.3189 19.4236 24.3012 20.0988 23.334C22.1665 23.9908 24.8884 23.1824 26.3161 21.4356L26.3724 21.3635H26.3653C24.6774 20.6994 22.4689 21.0892 20.8935 22.2152C20.9498 22.1358 21.006 22.0636 21.0623 21.9842C21.4632 21.4429 21.8782 20.9232 22.2931 20.4107C24.7336 19.6961 26.9139 17.1481 27.2586 14.5063L27.2726 14.3981H27.2656C24.7407 14.9178 22.3986 17.4657 21.9344 20.1653C21.5335 20.6561 21.1397 21.1541 20.7528 21.6738C21.3858 19.9126 21.2733 17.7833 20.3519 16.3109L20.3449 16.3036L20.2886 16.3758C18.8961 18.1803 18.678 21.1181 19.7541 23.0669C19.1211 23.9836 18.5092 24.9436 17.9185 25.9397C18.2912 23.9475 17.6653 21.6305 16.3008 20.3241L16.2938 20.3169L16.2586 20.3962C15.3584 22.475 15.8437 25.3478 17.3277 26.9646C16.7439 28.0113 16.1812 29.094 15.6467 30.2128C15.9703 28.1412 15.2458 25.7376 13.797 24.4383L13.79 24.4311L13.7548 24.5177C12.9319 26.7048 13.5649 29.657 15.1614 31.2377C14.8168 32.0028 14.4792 32.7896 14.1557 33.5836C14.0783 33.5042 13.9799 33.4392 13.8603 33.4031C13.4453 33.2804 12.8686 33.0567 12.2356 32.6669C11.8136 32.407 11.3705 32.1977 10.9063 32.0461C9.10583 31.4398 9.36606 30.5448 8.42361 28.7619C8.36031 28.6464 7.61479 27.8452 7.46006 27.7009C7.41786 27.6648 6.94664 27.3833 6.70047 26.8564C6.48244 26.38 6.35585 25.9325 6.30661 25.4994C6.24331 24.9147 6.01122 24.5322 5.4556 24.3373C2.80407 23.3917 3.98565 19.8621 4.08412 19.3857C4.16148 18.9815 3.82389 18.1081 3.69729 17.6318C3.68322 17.574 3.66916 17.5018 3.65509 17.4152C3.46519 16.4696 3.89422 15.6612 4.21072 15.3364C4.52721 15.0044 5.63142 14.4775 5.86352 14.1671C6.08858 13.8639 6.27145 13.5175 6.50354 13.2215C6.81301 12.8245 7.76249 12.0522 9.0355 11.3521C9.80916 10.9262 9.94279 9.82185 10.2382 9.47539C10.7446 8.89073 11.5042 8.89073 12.0739 8.37103C12.3622 8.10396 12.7772 7.97404 13.0374 7.69254C14.3526 6.30668 16.118 5.75089 17.8622 5.41164C19.0367 5.18789 20.3449 5.53435 21.5757 5.75089C21.7586 5.77976 21.9274 5.83029 22.0962 5.8736C24.8532 5.96743 28.1729 6.55931 29.3685 7.7575C30.1141 8.50817 30.4798 9.32381 30.6626 9.88682C30.8596 10.5148 31.1339 11.1139 31.4715 11.6769L32.2099 12.9112C32.6741 13.6907 32.8289 14.6291 32.6319 15.5169C32.5194 16.0221 32.4561 16.5563 32.6038 16.8522C32.8359 17.3142 33.5392 18.0648 33.9683 18.4979C34.1722 18.7072 34.3973 18.8877 34.6434 19.0465C35.2131 19.4146 36.2892 20.122 36.2892 20.1797C36.2892 20.2591 36.3806 20.6128 35.9024 21.0387C35.4241 21.4645 34.5309 22.1358 34.5309 22.1358C34.5309 22.1358 34.5801 22.4462 34.7067 22.6916C34.8333 22.937 35.1428 23.3051 35.0514 23.6371C34.9599 23.9692 34.2988 24.2362 34.4817 24.6044C34.6716 24.9725 35.1358 25.088 35.0021 25.42C34.8685 25.752 34.2144 26.3295 34.2777 26.5749C34.341 26.8203 34.8755 29.1084 33.6518 29.5126C32.7304 29.8158 30.1985 29.9818 29.0028 30.0467C28.4894 30.0756 28.0252 30.3716 27.779 30.8335C27.5962 31.18 27.4133 31.6564 27.3219 32.2988C27.0898 33.9228 25.5284 37.6401 25.5284 37.6401C25.5284 37.6401 25.4792 37.7339 25.4088 37.8927C25.2752 38.232 25.0783 38.7589 25.1064 38.9682C25.1275 39.1054 25.3104 39.3796 25.5776 39.7045C25.7886 39.9643 26.1403 40.0654 26.4568 39.9571C34.4887 37.1493 40.1786 29.2672 39.9957 20.1075Z" fill="#00FF8B"/>
</svg>
