<svg width="24" height="24" viewBox="0 0 24 24" fill="none" xmlns="http://www.w3.org/2000/svg">
<path d="M18.1107 8.00393C17.6679 7.74633 17.0922 7.74633 16.6052 8.00393L13.1513 9.97888L10.8044 11.2669L7.35058 13.2418C6.90775 13.4994 6.33213 13.4994 5.84502 13.2418L3.09963 11.6962C2.65684 11.4386 2.34689 10.9664 2.34689 10.4511V7.40285C2.34689 6.88766 2.61256 6.41537 3.09963 6.15778L5.80075 4.65507C6.24353 4.39748 6.81919 4.39748 7.3063 4.65507L10.0074 6.15778C10.4502 6.41537 10.7602 6.88766 10.7602 7.40285V9.3778L13.107 8.04684V6.07189C13.107 5.55669 12.8413 5.08441 12.3543 4.82681L7.35058 1.99318C6.90775 1.73559 6.33213 1.73559 5.84502 1.99318L0.752776 4.82681C0.265673 5.08441 0 5.55669 0 6.07189V11.7821C0 12.2973 0.265673 12.7696 0.752776 13.0272L5.84502 15.8608C6.28785 16.1184 6.86347 16.1184 7.35058 15.8608L10.8044 13.9288L13.1513 12.5978L16.6052 10.6658C17.048 10.4082 17.6236 10.4082 18.1107 10.6658L20.8118 12.1685C21.2546 12.4261 21.5646 12.8984 21.5646 13.4136V16.4619C21.5646 16.9771 21.2989 17.4493 20.8118 17.7069L18.1107 19.2526C17.6679 19.5102 17.0922 19.5102 16.6052 19.2526L13.9041 17.7499C13.4613 17.4923 13.1513 17.02 13.1513 16.5048V14.5299L10.8044 15.8608V17.8357C10.8044 18.351 11.0701 18.8233 11.5572 19.0808L16.6495 21.9145C17.0922 22.1721 17.6679 22.1721 18.155 21.9145L23.2472 19.0808C23.69 18.8233 24 18.351 24 17.8357V12.1256C24 11.6103 23.7343 11.1381 23.2472 10.8805L18.1107 8.00393Z" fill="#714ADC"/>
</svg>
