<svg width="24" height="24" viewBox="0 0 24 24" fill="none" xmlns="http://www.w3.org/2000/svg">
<g clip-path="url(#clip0_213_430)">
<path d="M11.9647 24.0002H11.8498C11.7969 23.9938 11.744 23.9851 11.691 23.9816C11.3691 23.9637 11.0548 23.877 10.7695 23.7274C8.85679 22.7178 6.9448 21.7066 5.0335 20.6937C4.89329 20.6193 4.75331 20.528 4.64551 20.4142C4.53771 20.3004 4.44094 20.2306 4.28602 20.2524C4.28096 20.2524 4.27453 20.2437 4.26165 20.2332V3.9173C4.26304 3.89438 4.26304 3.87139 4.26165 3.84846C4.252 3.76885 4.28464 3.73237 4.36509 3.74544C4.46691 3.76242 4.52736 3.7085 4.59977 3.64242C4.73101 3.52265 4.87145 3.40403 5.02752 3.3212C6.93024 2.30889 8.83572 1.30162 10.744 0.299402C11.5057 -0.097998 12.2973 -0.100522 13.0588 0.296189C14.9735 1.29428 16.8783 2.3098 18.786 3.32212C18.9221 3.39157 19.0468 3.48123 19.1559 3.58804C19.2612 3.69542 19.3602 3.77504 19.517 3.75026C19.5223 3.75026 19.5292 3.75806 19.5367 3.76334V20.2575C19.4781 20.2575 19.4276 20.2501 19.38 20.2596C19.3395 20.2676 19.291 20.2846 19.2651 20.3144C19.1246 20.4817 18.9515 20.6033 18.7594 20.7044C17.0125 21.6265 15.2656 22.5489 13.5187 23.4716C13.2454 23.6152 12.9715 23.7657 12.6818 23.868C12.4561 23.9481 12.2049 23.9587 11.9647 24.0002ZM6.03451 4.36082C6.08554 4.39042 6.1145 4.40877 6.14438 4.4246C7.88758 5.34575 9.63109 6.26659 11.3749 7.18713C11.7273 7.37252 12.0895 7.36931 12.4419 7.18368C14.1796 6.26774 15.9163 5.35034 17.6522 4.43149C17.6876 4.41267 17.7211 4.39179 17.7717 4.36265C17.7257 4.33673 17.6986 4.31952 17.6694 4.30414C15.9261 3.38315 14.1826 2.46231 12.4389 1.54162C12.0863 1.35577 11.725 1.35531 11.3726 1.54162C9.89803 2.31745 8.42467 3.09527 6.95254 3.87508C6.65281 4.03248 6.35354 4.19172 6.03428 4.36082H6.03451ZM17.7733 19.6492C17.7204 19.6183 17.6864 19.5962 17.6506 19.5772C15.9207 18.6631 14.1908 17.7491 12.4607 16.8353C12.0877 16.6382 11.7144 16.6417 11.342 16.8385C9.60205 17.7583 7.8623 18.678 6.12277 19.5976C6.09795 19.6107 6.07542 19.6281 6.04324 19.6492C6.07496 19.6678 6.09381 19.6802 6.11358 19.6908C7.88344 20.6267 9.65193 21.5662 11.4257 22.4948C11.7399 22.6593 12.0829 22.6536 12.3994 22.4875C14.1214 21.5839 15.8415 20.6761 17.5596 19.764C17.6257 19.7288 17.6915 19.6931 17.7733 19.6492ZM6.02922 11.8332C7.76461 12.7509 9.47701 13.6554 11.2037 14.5675V9.09887L6.02922 11.8332ZM17.7811 11.8332L12.6094 9.10001V14.5663L17.7811 11.8332ZM18.1519 13.2126L13.3689 15.7402L18.1514 18.267L18.1519 13.2126ZM5.66284 13.2163V18.2641L10.4406 15.7402L5.66284 13.2163ZM18.1521 5.74323L13.693 8.09917L18.1521 10.4549V5.74323ZM10.1155 8.09802L5.66146 5.74483V10.4512L10.1155 8.09802Z" fill="#00FF8B"/>
<path d="M1.80005 19.3843C1.86142 19.3804 1.89498 19.3765 1.92877 19.3763C2.31469 19.3763 2.70084 19.3788 3.08699 19.374C3.18261 19.374 3.2056 19.4036 3.21134 19.497C3.22651 19.7365 3.24628 19.9768 3.2849 20.2133C3.30448 20.3463 3.35106 20.4739 3.42176 20.5884C3.49247 20.7028 3.58582 20.8016 3.6961 20.8787C3.93929 21.0504 4.19281 21.2068 4.44197 21.3697C4.47691 21.3927 4.51231 21.4145 4.56127 21.4457L3.84298 22.634C3.75104 22.5791 3.66438 22.5275 3.57773 22.4752C3.22077 22.26 2.86519 22.0393 2.57143 21.741C2.16184 21.3248 1.94715 20.8136 1.87291 20.2422C1.8366 19.9621 1.82441 19.6806 1.80005 19.3843Z" fill="#00FF8B"/>
<path d="M19.1396 2.30461C19.3801 1.90721 19.6164 1.51693 19.8582 1.11792C20.3721 1.43295 20.8964 1.7131 21.28 2.18255C21.6444 2.62813 21.8004 3.15287 21.8547 3.7141C21.8751 3.92909 21.8811 4.14568 21.894 4.36939H20.5041C20.4923 4.19708 20.4861 4.02637 20.4673 3.85681C20.4522 3.72423 20.4292 3.59268 20.3983 3.46285C20.3218 3.13612 20.0995 2.9193 19.8315 2.74354C19.6081 2.59739 19.3808 2.45719 19.1396 2.30461Z" fill="#00FF8B"/>
</g>
<defs>
<clipPath id="clip0_213_430">
<rect width="24" height="24" fill="white"/>
</clipPath>
</defs>
</svg>
