<svg width="24" height="24" viewBox="0 0 24 24" fill="none" xmlns="http://www.w3.org/2000/svg">
<path d="M17.9748 14.3098C18.5616 13.2963 19.5085 13.2963 20.0953 14.3098L23.7496 20.7247C24.3364 21.7383 23.8562 22.5652 22.6826 22.5652H15.3208C14.1605 22.5652 13.6804 21.7383 14.2539 20.7247L17.9748 14.3098ZM10.9064 1.96014C11.4932 0.946556 12.4268 0.946556 13.0136 1.96014L13.8271 3.42717L15.7476 6.80133C16.2144 7.76156 16.2144 8.89518 15.7476 9.85541L9.306 21.0182C8.71919 21.925 7.74562 22.4985 6.66536 22.5652H1.31738C0.143754 22.5652 -0.336364 21.7517 0.250447 20.7247L10.9064 1.96014Z" fill="#00FF8B"/>
</svg>
