<svg width="24" height="24" viewBox="0 0 24 24" fill="none" xmlns="http://www.w3.org/2000/svg">
<path d="M18.1107 8.00399C17.6679 7.74639 17.0922 7.74639 16.6052 8.00399L13.1513 9.97894L10.8044 11.267L7.35058 13.2419C6.90775 13.4995 6.33213 13.4995 5.84502 13.2419L3.09963 11.6963C2.65684 11.4387 2.34689 10.9664 2.34689 10.4512V7.40291C2.34689 6.88772 2.61256 6.41543 3.09963 6.15784L5.80075 4.65513C6.24353 4.39754 6.81919 4.39754 7.3063 4.65513L10.0074 6.15784C10.4502 6.41543 10.7602 6.88772 10.7602 7.40291V9.37786L13.107 8.0469V6.07195C13.107 5.55675 12.8413 5.08447 12.3543 4.82687L7.35058 1.99325C6.90775 1.73565 6.33213 1.73565 5.84502 1.99325L0.752776 4.82687C0.265673 5.08447 0 5.55675 0 6.07195V11.7821C0 12.2973 0.265673 12.7696 0.752776 13.0272L5.84502 15.8609C6.28785 16.1185 6.86347 16.1185 7.35058 15.8609L10.8044 13.9288L13.1513 12.5979L16.6052 10.6659C17.048 10.4083 17.6236 10.4083 18.1107 10.6659L20.8118 12.1685C21.2546 12.4262 21.5646 12.8984 21.5646 13.4137V16.4619C21.5646 16.9772 21.2989 17.4494 20.8118 17.707L18.1107 19.2527C17.6679 19.5102 17.0922 19.5102 16.6052 19.2527L13.9041 17.7499C13.4613 17.4924 13.1513 17.0201 13.1513 16.5049V14.5299L10.8044 15.8609V17.8358C10.8044 18.351 11.0701 18.8233 11.5572 19.0809L16.6495 21.9145C17.0922 22.1721 17.6679 22.1721 18.155 21.9145L23.2472 19.0809C23.69 18.8233 24 18.351 24 17.8358V12.1256C24 11.6104 23.7343 11.1382 23.2472 10.8805L18.1107 8.00399Z" fill="#00FF8B"/>
</svg>
