<svg width="21" height="24" viewBox="0 0 21 24" fill="none" xmlns="http://www.w3.org/2000/svg">
<path d="M8.16968 5.45839C7.90975 5.42126 7.89738 5.40888 8.02115 5.39651C8.25633 5.35937 8.80093 5.40888 9.18464 5.49553C10.0758 5.70595 10.8804 6.25056 11.7344 7.20362L11.9572 7.46355L12.279 7.41404C13.6529 7.19125 15.064 7.36453 16.2398 7.90914C16.5616 8.05767 17.0691 8.35473 17.131 8.429C17.1557 8.45375 17.1929 8.61466 17.2176 8.77557C17.3043 9.35731 17.2671 9.79052 17.0815 10.1247C16.9825 10.3104 16.9825 10.3599 17.0444 10.5208C17.0939 10.6446 17.2424 10.7312 17.3785 10.7312C17.6756 10.7312 17.985 10.2609 18.1336 9.60486L18.1955 9.34493L18.3069 9.46871C18.9381 10.1742 19.4332 11.152 19.5075 11.8452L19.5322 12.0309L19.4208 11.8699C19.2352 11.5853 19.0619 11.3996 18.8267 11.2387C18.4059 10.954 17.9603 10.8674 16.7844 10.8055C15.72 10.7436 15.1135 10.6569 14.5193 10.4589C13.5044 10.1247 12.9845 9.6915 11.7839 8.0948C11.2517 7.38929 10.9175 7.00558 10.5833 6.68377C9.85302 5.97825 9.12275 5.60692 8.16968 5.45839Z" fill="#FF007A"/>
<path d="M17.3909 7.0305C17.4157 6.56015 17.4776 6.25072 17.6137 5.96603C17.6632 5.85464 17.7127 5.75562 17.7251 5.75562C17.7375 5.75562 17.7127 5.84226 17.6756 5.94128C17.5766 6.21358 17.5642 6.59729 17.6261 7.0305C17.7127 7.58749 17.7499 7.66175 18.344 8.26825C18.6163 8.55293 18.9381 8.91188 19.0619 9.06041L19.2723 9.33271L19.0619 9.13467C18.802 8.88712 18.2078 8.41678 18.0717 8.35489C17.985 8.30538 17.9727 8.30538 17.9108 8.36727C17.8613 8.41678 17.8489 8.49104 17.8489 8.84999C17.8365 9.40698 17.7622 9.75355 17.5766 10.1125C17.4776 10.2982 17.4652 10.261 17.5518 10.0506C17.6137 9.8897 17.6261 9.81544 17.6261 9.2832C17.6261 8.20636 17.5023 7.94643 16.7473 7.51322C16.5616 7.40182 16.2398 7.24092 16.0542 7.15427C15.8561 7.06763 15.7076 6.99337 15.72 6.99337C15.7447 6.96861 16.475 7.17903 16.7597 7.3028C17.1929 7.47609 17.2671 7.48847 17.3167 7.47609C17.3538 7.43896 17.3785 7.33994 17.3909 7.0305Z" fill="#FF007A"/>
<path d="M8.67705 8.8747C8.15719 8.15681 7.823 7.04283 7.89726 6.21354L7.92202 5.95361L8.04579 5.97837C8.26859 6.0155 8.65229 6.16403 8.83795 6.27543C9.33305 6.57249 9.55585 6.98095 9.76627 7.9959C9.82815 8.29296 9.91479 8.63953 9.95193 8.75093C10.0138 8.93659 10.249 9.3698 10.447 9.64211C10.5832 9.84015 10.4965 9.93917 10.1871 9.91441C9.71676 9.8649 9.0855 9.43169 8.67705 8.8747Z" fill="#FF007A"/>
<path d="M16.7596 14.2589C14.3088 13.2687 13.4424 12.4146 13.4424 10.9665C13.4424 10.756 13.4548 10.5828 13.4548 10.5828C13.4671 10.5828 13.5538 10.657 13.6652 10.7437C14.1603 11.1398 14.7173 11.313 16.2645 11.5358C17.168 11.672 17.6879 11.771 18.1582 11.9319C19.6559 12.427 20.5842 13.442 20.807 14.8159C20.8689 15.2119 20.8318 15.967 20.7327 16.3631C20.6461 16.6725 20.3985 17.2419 20.3367 17.2542C20.3243 17.2542 20.2995 17.1924 20.2995 17.0933C20.2748 16.5735 20.0148 16.0784 19.5816 15.6947C19.0618 15.2491 18.3934 14.9149 16.7596 14.2589Z" fill="#FF007A"/>
<path d="M15.0267 14.6674C15.002 14.4818 14.9401 14.2466 14.9029 14.1476L14.841 13.9619L14.9524 14.0981C15.1134 14.2837 15.2371 14.5065 15.3485 14.816C15.4352 15.0511 15.4352 15.1254 15.4352 15.5091C15.4352 15.8804 15.4228 15.9671 15.3485 16.1775C15.2248 16.5117 15.0762 16.7469 14.8287 17.0068C14.3831 17.4647 13.8013 17.7123 12.972 17.8237C12.8235 17.8361 12.4027 17.8732 12.0314 17.898C11.103 17.9475 10.4842 18.0465 9.92718 18.2445C9.85292 18.2693 9.77865 18.294 9.76628 18.2817C9.74152 18.2569 10.1252 18.0341 10.4347 17.8856C10.8679 17.6752 11.3135 17.5638 12.2913 17.3905C12.774 17.3162 13.2691 17.2172 13.3929 17.1677C14.6183 16.784 15.2248 15.8309 15.0267 14.6674Z" fill="#FF007A"/>
<path d="M16.1531 16.6602C15.8313 15.9547 15.757 15.2863 15.9303 14.655C15.9551 14.5931 15.9798 14.5312 16.0046 14.5312C16.0294 14.5312 16.1036 14.5684 16.1779 14.6179C16.3264 14.7169 16.6358 14.8902 17.428 15.3234C18.4306 15.868 19 16.2889 19.396 16.7716C19.7426 17.1924 19.953 17.6751 20.052 18.2693C20.1139 18.6035 20.0768 19.408 19.9902 19.7422C19.7178 20.7943 19.099 21.6359 18.1954 22.1187C18.0593 22.1929 17.9479 22.2424 17.9355 22.2424C17.9231 22.2424 17.9726 22.1187 18.0469 21.9701C18.3439 21.3389 18.3811 20.7324 18.1583 20.0516C18.0221 19.6308 17.7374 19.1233 17.1681 18.2693C16.4873 17.2791 16.3264 17.0191 16.1531 16.6602Z" fill="#FF007A"/>
<path d="M6.93205 20.4477C7.84798 19.6803 8.97433 19.1357 10.014 18.9624C10.4596 18.8881 11.2023 18.9129 11.6107 19.0243C12.2667 19.1975 12.8609 19.5689 13.1703 20.0268C13.4674 20.4724 13.6035 20.8561 13.7397 21.7102C13.7892 22.0444 13.8511 22.3909 13.8634 22.4652C13.9625 22.9108 14.1605 23.2574 14.4081 23.443C14.7918 23.7277 15.4601 23.7401 16.1162 23.4925C16.2275 23.4554 16.3266 23.4183 16.3266 23.4307C16.3513 23.4554 16.0171 23.6782 15.7943 23.7896C15.4849 23.9505 15.2373 24 14.9032 24C14.309 24 13.8016 23.6906 13.3931 23.0717C13.3065 22.9479 13.1332 22.589 12.9846 22.2548C12.5514 21.2522 12.3286 20.9552 11.8212 20.621C11.3756 20.3363 10.8062 20.2744 10.373 20.4848C9.80363 20.7571 9.6551 21.4874 10.0512 21.933C10.2121 22.1186 10.5091 22.2672 10.7567 22.3043C11.2147 22.3662 11.6107 22.0072 11.6107 21.5493C11.6107 21.2522 11.4993 21.0789 11.2023 20.9428C10.8062 20.7695 10.373 20.9675 10.3854 21.3512C10.3854 21.5121 10.4596 21.6112 10.6205 21.6854C10.7196 21.7349 10.7196 21.7349 10.6453 21.7226C10.2863 21.6483 10.1997 21.2027 10.4844 20.918C10.831 20.5714 11.5612 20.72 11.8088 21.2027C11.9078 21.4007 11.9202 21.7968 11.8335 22.0444C11.6231 22.589 11.029 22.8737 10.4225 22.7128C10.014 22.6014 9.84076 22.49 9.34566 21.9825C8.47923 21.0913 8.14504 20.918 6.90729 20.7324L6.67212 20.6952L6.93205 20.4477Z" fill="#FF007A"/>
<path fill-rule="evenodd" clip-rule="evenodd" d="M0.421386 0.532233C3.30534 4.03507 7.74887 9.48117 7.97166 9.77823C8.15733 10.0258 8.08306 10.2609 7.77362 10.4342C7.60034 10.5333 7.24139 10.6323 7.0681 10.6323C6.87006 10.6323 6.63489 10.5333 6.47398 10.3723C6.36259 10.2609 5.87986 9.55543 4.79064 7.85971C3.96135 6.56008 3.25583 5.48323 3.24346 5.47086C3.19395 5.4461 3.19395 5.4461 4.704 8.1444C5.65707 9.84011 5.96651 10.4466 5.96651 10.5209C5.96651 10.6818 5.917 10.7684 5.71896 10.9912C5.38476 11.3625 5.23623 11.7834 5.12484 12.6622C5.00106 13.64 4.66687 14.3331 3.7138 15.509C3.15681 16.2022 3.07017 16.3259 2.93402 16.6106C2.76073 16.9572 2.71122 17.1552 2.68647 17.6008C2.66171 18.0712 2.71122 18.3682 2.84738 18.8138C2.97115 19.2099 3.1073 19.4698 3.4415 19.9773C3.72618 20.4229 3.89946 20.7571 3.89946 20.8808C3.89946 20.9799 3.92422 20.9799 4.36981 20.8808C5.43427 20.6333 6.31308 20.2125 6.7958 19.6926C7.09286 19.3708 7.16713 19.1975 7.16713 18.7519C7.16713 18.4672 7.15475 18.4053 7.08048 18.2321C6.95671 17.9598 6.72154 17.737 6.21406 17.3904C5.54567 16.9324 5.26099 16.5611 5.18672 16.066C5.12484 15.6452 5.1991 15.3605 5.57043 14.5807C5.95413 13.7762 6.05315 13.442 6.11504 12.6251C6.15217 12.1052 6.21406 11.8948 6.36259 11.7339C6.5235 11.5606 6.65965 11.4987 7.04335 11.4492C7.6746 11.3625 8.08306 11.2016 8.40488 10.8922C8.68956 10.6323 8.81333 10.3723 8.82571 9.98864L8.83809 9.70396L8.67718 9.53068C8.09544 8.86229 0.0376831 0 0.000550557 0C-0.0118269 0 0.186213 0.235173 0.421386 0.532233ZM4.22128 18.133C4.35743 17.8979 4.28317 17.6008 4.06037 17.4523C3.84995 17.3161 3.52814 17.378 3.52814 17.5637C3.52814 17.6132 3.55289 17.6627 3.62716 17.6874C3.73856 17.7493 3.75093 17.8112 3.66429 17.9474C3.57765 18.0835 3.57765 18.2073 3.68905 18.2939C3.86233 18.4301 4.0975 18.3558 4.22128 18.133Z" fill="#FF007A"/>
<path fill-rule="evenodd" clip-rule="evenodd" d="M9.23415 11.6225C8.93709 11.7092 8.6524 12.031 8.56576 12.3528C8.51625 12.5509 8.54101 12.9098 8.62765 13.0212C8.7638 13.1945 8.88758 13.244 9.23415 13.244C9.91491 13.244 10.4967 12.9469 10.5585 12.588C10.6204 12.2909 10.3605 11.8825 10.0016 11.6968C9.81589 11.5978 9.43219 11.5607 9.23415 11.6225ZM10.0263 12.2414C10.1253 12.0929 10.0882 11.932 9.90253 11.8206C9.56834 11.6102 9.06086 11.7834 9.06086 12.1053C9.06086 12.2662 9.32079 12.4395 9.56834 12.4395C9.72925 12.4395 9.95204 12.3404 10.0263 12.2414Z" fill="#FF007A"/>
</svg>
